HIERARCHY
ROOT Hips
{
	OFFSET 0.000000 0.000000 0.000000
	CHANNELS 6 Xposition Yposition Zposition Zrotation Yrotation Xrotation 
	JOINT LeftUpLeg_virtual
	{
		OFFSET 0.000000 0.000000 0.000000
		CHANNELS 3 Zrotation Yrotation Xrotation
		JOINT LeftUpLeg
		{
			OFFSET 8.479694 -4.795517 -0.379053
			CHANNELS 3 Zrotation Yrotation Xrotation
			JOINT LeftLeg
			{
				OFFSET 0.485052 -32.551468 0.112863
				CHANNELS 3 Zrotation Yrotation Xrotation
				JOINT LeftFoot
				{
					OFFSET 0.438033 -32.635670 -3.012641
					CHANNELS 3 Zrotation Yrotation Xrotation
					JOINT LeftToeBase
					{
						OFFSET 0.970169 -13.225353 11.864223
						CHANNELS 3 Zrotation Yrotation Xrotation
						End Site
						{
							OFFSET 0.000000 0.000000 0.000000
						}
					}
				}
			}
		}
	}
	JOINT RightUpLeg_virtual
	{
		OFFSET 0.000000 0.000000 0.000000
		CHANNELS 3 Zrotation Yrotation Xrotation
		JOINT RightUpLeg
		{
			OFFSET -8.479694 -4.795517 -0.379053
			CHANNELS 3 Zrotation Yrotation Xrotation
			JOINT RightLeg
			{
				OFFSET -0.484100 -32.551483 0.112903
				CHANNELS 3 Zrotation Yrotation Xrotation
				JOINT RightFoot
				{
					OFFSET -0.438985 -32.635651 -3.012681
					CHANNELS 3 Zrotation Yrotation Xrotation
					JOINT RightToeBase
					{
						OFFSET -0.970169 -13.225354 11.864223
						CHANNELS 3 Zrotation Yrotation Xrotation
						End Site
						{
							OFFSET 0.000000 0.000000 0.000000
						}
					}
				}
			}
		}
	}
	JOINT Spine_virtual
	{
		OFFSET 0.000000 0.000000 0.000000
		CHANNELS 3 Zrotation Yrotation Xrotation
		JOINT Spine
		{
			OFFSET 0.000000 7.722015 1.166203
			CHANNELS 3 Zrotation Yrotation Xrotation
			JOINT Spine1
			{
				OFFSET 0.000000 12.024086 0.248766
				CHANNELS 3 Zrotation Yrotation Xrotation
				JOINT Spine2
				{
					OFFSET -0.000000 11.503036 -0.491240
					CHANNELS 3 Zrotation Yrotation Xrotation
					JOINT Neck_virtual
					{
						OFFSET 0.000000 0.000000 0.000000
						CHANNELS 3 Zrotation Yrotation Xrotation
						JOINT Neck
						{
							OFFSET 0.000000 18.430687 -3.123054
							CHANNELS 3 Zrotation Yrotation Xrotation
							JOINT Head
							{
								OFFSET -0.000000 9.051071 1.034021
								CHANNELS 3 Zrotation Yrotation Xrotation
								End Site
								{
									OFFSET 0.000000 0.000000 0.000000
								}
							}
						}
					}
					JOINT LeftShoulder_virtual
					{
						OFFSET 0.000000 0.000000 0.000000
						CHANNELS 3 Zrotation Yrotation Xrotation
						JOINT LeftShoulder
						{
							OFFSET 6.197824 13.665230 -4.064723
							CHANNELS 3 Zrotation Yrotation Xrotation
							JOINT LeftArm
							{
								OFFSET 7.778132 -0.187073 -1.709282
								CHANNELS 3 Zrotation Yrotation Xrotation
								JOINT LeftForeArm
								{
									OFFSET 21.954697 0.000000 -2.041093
									CHANNELS 3 Zrotation Yrotation Xrotation
									JOINT LeftHand
									{
										OFFSET 22.992908 0.000000 -0.870901
										CHANNELS 3 Zrotation Yrotation Xrotation
										End Site
										{
											OFFSET 0.000000 0.000000 0.000000
										}
									}
								}
							}
						}
					}
					JOINT RightShoulder_virtual
					{
						OFFSET 0.000000 0.000000 0.000000
						CHANNELS 3 Zrotation Yrotation Xrotation
						JOINT RightShoulder
						{
							OFFSET -6.197824 13.665230 -4.064723
							CHANNELS 3 Zrotation Yrotation Xrotation
							JOINT RightArm
							{
								OFFSET -7.778132 -0.187073 -1.709282
								CHANNELS 3 Zrotation Yrotation Xrotation
								JOINT RightForeArm
								{
									OFFSET -21.954697 0.000000 -2.041093
									CHANNELS 3 Zrotation Yrotation Xrotation
									JOINT RightHand
									{
										OFFSET -22.992908 0.000000 -0.870901
										CHANNELS 3 Zrotation Yrotation Xrotation
										End Site
										{
											OFFSET 0.000000 0.000000 0.000000
										}
									}
								}
							}
						}
					}
				}
			}
		}
	}
}
MOTION
Frames: 14
Frame Time: 0.033333
-7.864541 81.027527 -16.456989 179.889834 0.559058 -179.987355 -1.553397 0.186122 14.686375 6.559491 -5.621615 -21.187240 0.992334 3.919061 24.346411 -0.541348 -6.895819 -11.713627 0.000000 0.000000 0.000000 2.759476 -1.140457 16.042822 -7.357582 3.766505 -21.471903 -0.846348 7.278042 28.855104 11.128611 3.546530 -13.089434 0.000000 0.000000 0.000000 3.555017 2.304187 3.299981 -0.469954 -1.998727 -7.234232 -0.195582 -1.978521 9.058880 0.001425 -0.015710 0.010370 -0.364424 -0.493372 8.890786 -3.818407 4.524744 -6.235810 0.000000 0.000000 0.000000 1.495534 0.120049 6.237345 -11.217433 -4.496678 4.791141 -58.771865 -6.851634 -0.094371 5.716782 -20.044539 5.271371 0.000000 0.000000 0.000000 -3.288043 1.586833 5.518423 28.251414 0.036453 8.598675 47.691335 3.801995 -0.214638 -2.728150 23.335218 -3.056909 0.000000 0.000000 0.000000 
-7.884063 80.996506 -16.407053 179.923206 0.463514 -179.978667 -1.506594 0.258493 14.572564 6.425985 -5.289694 -21.337938 0.896892 4.224735 24.285947 -0.602845 -6.904512 -11.632524 0.000000 0.000000 0.000000 2.753753 -1.199527 16.027449 -7.439359 3.915268 -21.513788 -1.111360 7.229591 28.517462 10.782856 3.159581 -13.148392 0.000000 0.000000 0.000000 3.625622 2.402472 3.234236 -0.509936 -2.043308 -7.270472 -0.260897 -2.036739 9.045274 0.072497 -0.059301 -0.022447 -0.450205 -0.660885 8.876542 -3.806307 4.384449 -6.220437 0.000000 0.000000 0.000000 1.455631 -0.081129 6.174664 -11.102698 -4.775863 4.743965 -58.004719 -9.000343 -0.409473 5.666399 -21.147533 4.871511 0.000000 0.000000 0.000000 -3.431270 1.709524 5.411734 28.185368 0.299819 8.696592 47.116001 5.142802 -0.102720 -2.720131 23.845287 -3.056109 0.000000 0.000000 0.000000 
-7.893738 80.961182 -16.344440 179.868824 0.401534 179.953013 -1.514183 0.185280 14.561072 6.350623 -5.317029 -21.352471 0.971982 4.230440 24.412944 -0.682799 -6.859048 -11.735844 0.000000 0.000000 0.000000 2.671516 -1.222120 15.961671 -7.407399 3.850158 -21.522693 -1.075879 7.206103 28.669272 10.821628 3.225448 -13.254038 0.000000 0.000000 0.000000 3.581402 2.225129 3.137762 -0.619833 -2.024717 -7.251644 -0.290699 -2.035051 9.018870 0.037431 -0.033430 0.022904 -0.464290 -0.635436 8.732388 -3.791673 4.412622 -6.191181 0.000000 0.000000 0.000000 1.412883 0.028510 6.050508 -10.966109 -5.353729 4.600987 -56.497887 -12.621293 -0.852424 5.435701 -22.567978 4.659784 0.000000 0.000000 0.000000 -3.402223 1.567667 5.358313 28.274120 1.073663 8.825514 45.936680 7.551186 0.278207 -2.630147 24.331654 -2.973895 0.000000 0.000000 0.000000 
-7.891952 80.935654 -16.287361 179.881392 0.348081 179.975321 -1.525218 0.103171 14.506917 6.299089 -5.325452 -21.363621 1.094082 4.237661 24.548497 -0.834809 -6.805844 -11.807835 0.000000 0.000000 0.000000 2.610269 -1.256017 15.839711 -7.344648 3.739396 -21.522667 -1.023678 7.176471 28.819396 10.833748 3.294880 -13.283846 0.000000 0.000000 0.000000 3.563870 2.172084 2.919041 -0.717390 -2.010742 -7.278005 -0.308935 -2.055918 8.921459 0.013077 -0.025785 0.003809 -0.484959 -0.606431 8.678921 -3.718279 4.456136 -6.111030 0.000000 0.000000 0.000000 1.327852 -0.031745 5.974673 -10.923191 -5.882113 4.455670 -54.656605 -16.656403 -1.476575 5.083874 -24.312912 4.562493 0.000000 0.000000 0.000000 -3.391902 1.556025 5.275908 28.548548 1.765927 8.974930 44.266104 10.322280 0.537728 -2.463934 24.970045 -2.841913 0.000000 0.000000 0.000000 
-7.870872 80.924141 -16.260956 179.936061 0.205628 179.963450 -1.517323 0.039160 14.438663 6.275845 -5.335834 -21.382288 1.261083 4.159242 24.692671 -1.050493 -6.751400 -11.861046 0.000000 0.000000 0.000000 2.604938 -1.239123 15.736684 -7.236682 3.567269 -21.444735 -0.983759 7.020366 28.929539 10.818594 3.343442 -13.285494 0.000000 0.000000 0.000000 3.546151 2.127753 2.712565 -0.806698 -2.015632 -7.353780 -0.279450 -2.098843 8.863355 -0.004158 -0.021884 -0.005265 -0.472933 -0.671485 8.652096 -3.643838 4.382884 -5.965661 0.000000 0.000000 0.000000 1.323137 -0.055127 5.923750 -10.973992 -6.348273 4.261258 -52.690422 -20.364660 -2.191588 4.697722 -26.561562 4.187954 0.000000 0.000000 0.000000 -3.342588 1.523551 5.207269 28.796921 2.437762 9.074430 42.366724 13.145048 0.505908 -2.164500 25.953433 -2.415040 0.000000 0.000000 0.000000 
-7.841508 80.922241 -16.266191 179.930078 0.027719 179.977465 -1.584581 -0.002505 14.333724 6.284504 -5.332994 -21.371341 1.436122 4.107245 24.836528 -1.336477 -6.713297 -11.875624 0.000000 0.000000 0.000000 2.571302 -1.218035 15.602556 -7.135092 3.333381 -21.391613 -0.956987 6.917135 29.102176 10.794146 3.376467 -13.279504 0.000000 0.000000 0.000000 3.455770 2.099169 2.470325 -0.939967 -2.018583 -7.470218 -0.211936 -2.128511 8.761790 -0.013388 -0.018165 0.018010 -0.402089 -0.687749 8.616351 -3.520740 4.306018 -5.818178 0.000000 0.000000 0.000000 1.388799 -0.065410 5.849760 -11.059634 -6.701686 4.214335 -50.846237 -23.534194 -3.135853 4.303056 -29.189384 3.819403 0.000000 0.000000 0.000000 -3.271889 1.477584 5.122286 29.001103 3.034900 9.257419 40.478587 15.659216 0.424548 -2.059649 27.348315 -2.365724 0.000000 0.000000 0.000000 
-7.794352 80.925949 -16.275173 179.954680 -0.175446 179.988353 -1.635316 -0.010578 14.204640 6.328743 -5.313325 -21.351726 1.642243 4.001021 24.961271 -1.671798 -6.686640 -11.874077 0.000000 0.000000 0.000000 2.580707 -1.187587 15.460237 -7.024267 3.109178 -21.304084 -0.905023 6.767803 29.266753 10.759594 3.401517 -13.253428 0.000000 0.000000 0.000000 3.348934 2.064107 2.217042 -1.066210 -2.012587 -7.521411 -0.087502 -2.158398 8.646272 0.027862 -0.018100 -0.018336 -0.386545 -0.748722 8.627713 -3.413380 4.130320 -5.663059 0.000000 0.000000 0.000000 1.417069 -0.070981 5.841634 -11.226744 -6.886122 4.072685 -49.259936 -26.049915 -3.997667 3.903810 -32.016983 3.466870 0.000000 0.000000 0.000000 -3.229173 1.464502 5.084890 29.242557 3.533096 9.397459 38.985470 17.826251 0.375191 -1.853063 28.994102 -2.167492 0.000000 0.000000 0.000000 
-7.738485 80.932693 -16.275795 179.872280 -0.428428 179.996153 -1.744188 -0.180212 14.083252 6.308457 -5.344839 -21.268880 1.842430 3.964178 25.073771 -1.966716 -6.564467 -11.825617 0.000000 0.000000 0.000000 2.560397 -1.500131 15.273509 -6.997163 2.835707 -21.243143 -0.864025 6.832936 29.466064 10.819162 3.536433 -13.211068 0.000000 0.000000 0.000000 3.206859 1.964762 1.984280 -1.237137 -1.940196 -7.557964 -0.005730 -2.134689 8.524955 -0.015233 -0.031767 0.018340 -0.202946 -0.644190 8.562294 -3.215802 4.096438 -5.512532 0.000000 0.000000 0.000000 1.585601 -0.058609 5.788946 -11.423545 -7.107208 3.925223 -48.302985 -27.774814 -4.593419 3.528518 -34.855490 2.982793 0.000000 0.000000 0.000000 -3.067925 1.459965 4.979777 29.439833 3.917904 9.513188 37.883234 19.555981 0.407894 -1.705735 30.690936 -2.057835 0.000000 0.000000 0.000000 
-7.682399 80.940781 -16.274309 179.858524 -0.537940 179.893195 -1.836145 -0.320666 14.023784 6.299864 -5.226781 -21.136118 2.050384 3.916232 25.198993 -2.350673 -6.536269 -11.783634 0.000000 0.000000 0.000000 2.468504 -1.530184 15.139944 -6.855973 2.732409 -21.001570 -0.807684 6.735787 29.511591 10.756525 3.539916 -13.188002 0.000000 0.000000 0.000000 3.141882 1.801615 1.829132 -1.376404 -1.833259 -7.509543 0.090315 -2.098781 8.455642 0.008256 -0.019159 0.007013 -0.109802 -0.596278 8.495306 -3.009150 3.958101 -5.376647 0.000000 0.000000 0.000000 1.658247 0.003618 5.723246 -11.640429 -7.226247 3.723628 -47.934408 -28.911163 -4.842476 3.181852 -37.423710 2.600956 0.000000 0.000000 0.000000 -2.969016 1.485614 4.902216 29.506246 4.183136 9.590935 37.417743 20.832398 0.691366 -1.661569 32.221947 -2.173646 0.000000 0.000000 0.000000 
-7.619349 80.943199 -16.281931 179.941716 -0.609525 179.957876 -1.823630 -0.570279 13.908733 6.238160 -4.946639 -21.104649 2.300947 3.846683 25.337201 -2.718783 -6.490512 -11.789866 0.000000 0.000000 0.000000 2.506858 -1.532132 14.916544 -6.792501 2.657763 -20.862751 -0.750242 6.532442 29.522683 10.763379 3.595070 -13.081679 0.000000 0.000000 0.000000 3.190600 1.572372 1.552023 -1.462403 -1.714982 -7.481474 0.176093 -2.073276 8.361542 -0.020109 -0.039950 -0.027116 -0.048752 -0.521051 8.504408 -2.788923 3.730237 -5.311018 0.000000 0.000000 0.000000 1.692174 0.076405 5.725649 -11.877207 -7.323730 3.728185 -48.061616 -29.591880 -4.747718 3.023219 -39.578289 2.234900 0.000000 0.000000 0.000000 -2.936800 1.632045 4.895742 29.588284 4.330891 9.637828 37.295777 21.625004 1.009288 -1.654347 33.507590 -2.127448 0.000000 0.000000 0.000000 
-7.572879 80.934441 -16.331808 179.890954 -0.561251 179.959652 -1.902168 -0.825341 13.866844 6.092818 -4.624444 -21.046497 2.545526 3.836014 25.500849 -3.084955 -6.465638 -11.821018 0.000000 0.000000 0.000000 2.449941 -1.949531 14.831144 -6.831781 2.823547 -20.896779 -0.716401 6.669526 29.613036 10.824627 3.685457 -13.126202 0.000000 0.000000 0.000000 3.193820 1.395880 1.330549 -1.612262 -1.552466 -7.354464 0.200952 -1.990054 8.337934 -0.001842 -0.030020 -0.012827 -0.008610 -0.477265 8.472541 -2.544260 3.683296 -5.311474 0.000000 0.000000 0.000000 1.704390 0.085296 5.722826 -12.045555 -7.494746 3.606871 -48.659712 -29.681038 -4.452235 2.775341 -41.301099 2.110180 0.000000 0.000000 0.000000 -2.866249 1.651397 4.881836 29.574921 4.288890 9.676968 37.557561 21.957194 1.610866 -1.708640 34.521788 -2.247979 0.000000 0.000000 0.000000 
-7.545426 80.904770 -16.423544 179.902306 -0.386664 -179.984692 -1.925488 -1.063447 13.818340 5.944019 -4.208282 -21.000976 2.800562 3.874034 25.761792 -3.443134 -6.466897 -11.926621 0.000000 0.000000 0.000000 2.442039 -2.073603 14.768877 -6.818221 2.904748 -20.956987 -0.641578 6.834327 29.793452 10.799448 3.689042 -13.195122 0.000000 0.000000 0.000000 3.268786 1.251654 1.065262 -1.706378 -1.396827 -7.208983 0.206758 -1.923543 8.325674 -0.014464 -0.025192 0.011639 0.001238 -0.432593 8.426163 -2.323432 3.500786 -5.429908 0.000000 0.000000 0.000000 1.689353 0.234216 5.732479 -12.161761 -7.736023 3.683945 -49.445181 -29.179702 -3.806508 2.740210 -42.292391 1.979236 0.000000 0.000000 0.000000 -2.857750 1.698209 4.873715 29.459009 4.173011 9.576572 38.067947 21.649651 2.443886 -1.701142 35.207904 -2.268264 0.000000 0.000000 0.000000 
-7.534706 80.852341 -16.562616 179.900394 -0.201380 -179.889615 -1.969807 -1.244458 13.749017 5.725468 -3.719381 -21.036254 3.144412 3.760644 26.144796 -3.756532 -6.468193 -12.169130 0.000000 0.000000 0.000000 2.287546 -2.278797 14.769499 -6.781529 3.311308 -21.142466 -0.625966 6.925787 30.054806 10.750538 3.631246 -13.317137 0.000000 0.000000 0.000000 3.338639 1.170159 0.786430 -1.763524 -1.207143 -6.989485 0.197554 -1.846872 8.347752 0.021790 0.012418 0.013480 -0.034473 -0.407376 8.464057 -2.073840 3.285225 -5.577810 0.000000 0.000000 0.000000 1.639126 0.091186 5.771731 -12.207404 -7.875434 3.746640 -50.424708 -28.102760 -3.043363 2.670090 -42.363818 2.199034 0.000000 0.000000 0.000000 -2.933009 1.671237 4.898058 29.267497 3.963359 9.674565 38.704817 20.952041 3.670867 -1.890882 35.542884 -2.452356 0.000000 0.000000 0.000000 
-7.518417 80.786812 -16.723068 179.892115 -0.057189 -179.987492 -2.023284 -1.552692 13.774717 5.566579 -3.482379 -20.949070 3.499328 3.837224 26.614090 -4.020129 -6.443916 -12.460838 0.000000 0.000000 0.000000 2.232595 -2.554888 14.848061 -6.759780 3.505143 -21.262282 -0.607394 7.014784 30.434537 10.802648 3.702303 -13.440409 0.000000 0.000000 0.000000 3.427884 0.999540 0.601427 -1.802795 -1.092310 -6.636995 0.150398 -1.858499 8.417301 -0.007950 -0.053569 0.028005 -0.040589 -0.363379 8.398652 -1.927294 3.050033 -5.826005 0.000000 0.000000 0.000000 1.629061 0.259298 5.734676 -12.279892 -7.981162 3.877425 -51.416677 -26.547021 -2.039420 2.692191 -41.216018 2.481790 0.000000 0.000000 0.000000 -2.914465 1.784250 4.907463 29.026965 3.830090 9.603235 39.484514 19.789199 5.316451 -1.981319 35.411020 -2.457746 0.000000 0.000000 0.000000 
